<svg xmlns="http://www.w3.org/2000/svg" viewBox="0 0 94.6 84.68"><defs><style>.cls-1{fill:#262b2b;}.cls-2{fill:#eff4fa;}</style></defs><g id="Layer_2" data-name="Layer 2"><g id="Layer_1-2" data-name="Layer 1"><path class="cls-1" d="M82.48,15.91V7.4L47.3,0,12.12,7.4V13H0L12.12,35.14v2c0,26.26,35.18,47.55,35.18,47.55s15.63-9.46,26.05-23.54c11.89-1,21.25-11.34,21.25-24A24.23,24.23,0,0,0,82.48,15.91Z"/><path class="cls-2" d="M71.37,41.87l10.54.06A11.89,11.89,0,1,1,71.05,25.06a11.65,11.65,0,0,1,5.83,1.56l4.76-8.53a21,21,0,0,0-10.26-2.86H4.4L29,59l6.66-11.87L30.2,37.44,29,39.64,20.62,24.8H53L44.58,39.59,37.52,27H26.83L44.63,59l7-12.53A21.43,21.43,0,0,0,71.05,59,21.68,21.68,0,0,0,92.51,37.13,22.18,22.18,0,0,0,92,32.34H71.37Z"/></g></g></svg>