<svg xmlns="http://www.w3.org/2000/svg" viewBox="0 0 94.67 12.36"><defs><style>.cls-1{fill:#ffb037;}</style></defs><g id="Layer_2" data-name="Layer 2"><g id="Layer_1-2" data-name="Layer 1"><path class="cls-1" d="M10.49,0,8.69,12.34H6.62L5.24,2.56,3.87,12.34H1.81L0,0H1.37L2.86,11.38,4.42,0H6.05L7.62,11.38,9.12,0Z"/><path class="cls-1" d="M15.27,0a1.39,1.39,0,0,1,1.57,1.57v9.2a1.39,1.39,0,0,1-1.57,1.57h-2a1.39,1.39,0,0,1-1.57-1.57V1.57A1.39,1.39,0,0,1,13.25,0Zm.22,1.78c0-.51-.1-.61-.61-.61H13.65c-.52,0-.62.1-.62.61v8.77c0,.52.1.62.62.62h1.23c.51,0,.61-.1.61-.62Z"/><path class="cls-1" d="M22.41,0A1.39,1.39,0,0,1,24,1.57v9.2a1.39,1.39,0,0,1-1.57,1.57h-2a1.39,1.39,0,0,1-1.57-1.57V1.57A1.39,1.39,0,0,1,20.39,0Zm.22,1.78c0-.51-.1-.61-.61-.61H20.79c-.52,0-.62.1-.62.61v8.77c0,.52.1.62.62.62H22c.51,0,.61-.1.61-.62Z"/><path class="cls-1" d="M27.43,1.17V5.53h2.66V6.7H27.43v5.64H26.06V0h4.82V1.17Z"/><path class="cls-1" d="M35.66,0a1.39,1.39,0,0,1,1.57,1.57V5.81a1.39,1.39,0,0,1-1.57,1.57H33.42v5H32.07V0Zm.22,1.78c0-.51-.1-.61-.61-.61H33.42v5h1.85c.51,0,.61-.1.61-.62Z"/><path class="cls-1" d="M42.44,9.2H40l-.46,3.14H38.12L40,0h2.17l2.12,12.34H43ZM42.27,8,41.12,1,40.1,8Z"/><path class="cls-1" d="M45.72,0h1.35V12.34H45.72Zm2.89,6.23,2.62,6.11H49.76L47.2,6.23,49.8,0h1.47Z"/><path class="cls-1" d="M58.73,3.45V1.78c0-.51-.1-.61-.62-.61H57c-.51,0-.61.1-.61.61v8.79c0,.52.1.62.61.62h1.09c.52,0,.62-.1.62-.62V7.3h-1V6.13H60.1v4.66a1.39,1.39,0,0,1-1.57,1.57H56.61A1.38,1.38,0,0,1,55,10.79V1.57A1.38,1.38,0,0,1,56.61,0h1.92A1.39,1.39,0,0,1,60.1,1.57V3.45Z"/><path class="cls-1" d="M65.61,9.2h-2.5l-.45,3.14H61.29L63.21,0h2.16l2.12,12.34H66.13ZM65.43,8,64.28,1,63.27,8Z"/><path class="cls-1" d="M71.78,9.66,70.05,3v9.35H68.88V0h1.49l2.12,7.93L74.64,0h1.48V12.34H75V3L73.23,9.66Z"/><path class="cls-1" d="M79.85,0V12.34H78.5V0Z"/><path class="cls-1" d="M87.53,0V12.34H86L83.48,2.78v9.56H82.23V0h1.59l2.46,9.22V0Z"/><path class="cls-1" d="M93.3,3.45V1.78c0-.51-.1-.61-.62-.61H91.59c-.51,0-.61.1-.61.61v8.79c0,.52.1.62.61.62h1.09c.52,0,.62-.1.62-.62V7.3h-1V6.13h2.36v4.66a1.39,1.39,0,0,1-1.57,1.57H91.18a1.39,1.39,0,0,1-1.57-1.57V1.57A1.39,1.39,0,0,1,91.18,0H93.1a1.39,1.39,0,0,1,1.57,1.57V3.45Z"/></g></g></svg>