<svg id="Layer_1" data-name="Layer 1" xmlns="http://www.w3.org/2000/svg" viewBox="0 0 100 100"><defs><style>.cls-1{fill:#262b2b;}.cls-2{fill:#eff4fa;}</style></defs><path class="cls-1" d="M86.33,23.25V14.64L50,7.15,13.67,14.64v5.7H1.15L13.67,42.71v2C13.67,71.3,50,92.85,50,92.85S66.14,83.28,76.9,69A24.15,24.15,0,0,0,98.85,44.72,24.45,24.45,0,0,0,86.33,23.25Z"/><path class="cls-2" d="M74.86,49.53l10.88,0A12.22,12.22,0,1,1,80.55,34.1l4.92-8.64a22,22,0,0,0-10.6-2.89H5.69L31.1,66.89l6.87-12L32.34,45l-1.29,2.23-8.61-15H55.85l-8.66,15L39.9,34.45h-11L47.24,66.89,54.5,54.21A22.17,22.17,0,0,0,96.16,39.88H74.86Z"/></svg>