<svg id="Layer_1" data-name="Layer 1" xmlns="http://www.w3.org/2000/svg" viewBox="0 0 50 50"><defs><style>.cls-1{fill:#262b2b;}.cls-2{fill:#eff4fa;}</style></defs><path class="cls-1" d="M42.48,11.83V7.57L24.89,3.87,7.3,7.57v2.82H1.24L7.3,21.44v1c0,13.13,17.59,23.77,17.59,23.77a51.68,51.68,0,0,0,13-11.76,11.85,11.85,0,0,0,10.63-12A12.12,12.12,0,0,0,42.48,11.83Z"/><path class="cls-2" d="M36.92,24.81l5.27,0a5.91,5.91,0,0,1-5.43,3.63,6,6,0,0,1,0-12.07,5.8,5.8,0,0,1,2.92.79l2.38-4.27a10.56,10.56,0,0,0-5.13-1.43H3.44l12.3,21.9,3.33-5.94-2.73-4.86-.62,1.1-4.17-7.41H27.72l-4.19,7.39L20,17.36H14.65l8.9,16,3.52-6.27a10.7,10.7,0,0,0,9.69,6.27A10.84,10.84,0,0,0,47.49,22.44a11.08,11.08,0,0,0-.26-2.39H36.92Z"/></svg>