<svg id="Layer_1" data-name="Layer 1" xmlns="http://www.w3.org/2000/svg" viewBox="0 0 200 200"><defs><style>.cls-1{fill:#262b2b;}.cls-2{fill:#eff4fa;}</style></defs><path class="cls-1" d="M173,45.18V27.53L100,12.19,27,27.53V39.22H1.9L27,85.07V89.2c0,54.46,73,98.61,73,98.61S132.41,168.2,154,139c24.66-2,44.08-23.52,44.08-49.81A50.29,50.29,0,0,0,173,45.18Z"/><path class="cls-2" d="M149.92,99l21.85.11a24.53,24.53,0,0,1-22.51,15.08,25,25,0,0,1,0-50.06,24.09,24.09,0,0,1,12.08,3.24l9.88-17.7a43.57,43.57,0,0,0-21.28-5.92H11l51,90.84L75.85,110,64.54,89.83,62,94.4,44.66,63.63h67.09L94.36,94.29,79.72,68.13H57.55l36.91,66.49,14.57-26a44.46,44.46,0,0,0,40.23,26c24.57,0,44.5-20.33,44.5-45.41a46.25,46.25,0,0,0-1.07-9.92H149.92Z"/></svg>