<?xml version="1.0" standalone="no"?>
<!DOCTYPE svg PUBLIC "-//W3C//DTD SVG 20010904//EN"
 "http://www.w3.org/TR/2001/REC-SVG-20010904/DTD/svg10.dtd">
<svg version="1.0" xmlns="http://www.w3.org/2000/svg"
 width="260.000000pt" height="260.000000pt" viewBox="0 0 260.000000 260.000000"
 preserveAspectRatio="xMidYMid meet">
<metadata>
Created by potrace 1.14, written by Peter Selinger 2001-2017
</metadata>
<g transform="translate(0.000000,260.000000) scale(0.100000,-0.100000)"
fill="#000000" stroke="none">
<path d="M845 2320 c-231 -49 -435 -91 -452 -95 l-33 -6 0 -74 0 -75 -163 -2
-164 -3 162 -289 162 -289 6 -101 c15 -262 153 -519 430 -796 113 -114 269
-243 405 -335 l102 -69 102 69 c198 134 424 336 550 492 43 52 57 63 82 63 17
0 67 13 112 28 390 136 543 610 309 961 -45 69 -142 161 -192 184 -22 10 -23
15 -23 124 0 62 -2 113 -3 113 -2 0 -211 43 -464 95 -254 52 -472 94 -485 94
-12 -1 -212 -41 -443 -89z m1289 -342 c37 -14 72 -30 77 -35 9 -9 -107 -223
-122 -223 -6 0 -33 7 -60 16 -143 47 -308 -25 -376 -164 -38 -78 -40 -192 -3
-267 87 -178 312 -238 468 -125 40 28 102 103 102 122 0 4 -63 8 -140 8 l-140
0 0 125 0 125 279 0 279 0 6 -22 c3 -13 6 -57 6 -98 0 -464 -514 -737 -898
-477 -70 48 -123 105 -183 196 -15 24 -16 23 -105 -132 -49 -86 -93 -156 -97
-154 -4 1 -113 188 -242 415 l-233 413 146 -3 146 -3 90 -157 c50 -87 93 -155
97 -150 4 4 55 88 112 187 l105 180 -214 3 c-118 1 -311 1 -429 0 l-215 -3
107 -187 c59 -104 110 -188 113 -188 4 0 12 12 19 27 12 26 14 24 83 -98 39
-68 71 -129 71 -135 0 -14 -165 -304 -173 -304 -4 0 -148 246 -320 548 -172
301 -320 557 -328 570 l-15 22 959 -2 959 -3 69 -27z"/>
</g>
</svg>
